<?xml version="1.0" standalone="no"?>
<!DOCTYPE svg PUBLIC "-//W3C//DTD SVG 20010904//EN"
 "http://www.w3.org/TR/2001/REC-SVG-20010904/DTD/svg10.dtd">
<svg version="1.0" xmlns="http://www.w3.org/2000/svg"
 width="256.000000pt" height="256.000000pt" viewBox="0 0 256.000000 256.000000"
 preserveAspectRatio="xMidYMid meet">
<metadata>
Created by potrace 1.14, written by Peter Selinger 2001-2017
</metadata>
<g transform="translate(0.000000,256.000000) scale(0.100000,-0.100000)"
fill="#000000" stroke="none">
<path d="M1065 2322 c-4 -4 -10 -7 -13 -7 -26 -1 -104 -30 -120 -45 -10 -10
-36 -29 -58 -42 -84 -54 -128 -115 -128 -178 0 -8 -4 -18 -9 -21 -9 -7 -10
-92 -1 -144 2 -16 7 -60 9 -97 5 -67 5 -67 -23 -70 -24 -3 -28 -8 -32 -51 -4
-26 -4 -50 0 -53 3 -3 5 -9 5 -12 2 -32 30 -132 37 -132 6 0 8 -7 4 -15 -6
-17 22 -38 74 -57 38 -13 60 -30 60 -47 0 -6 4 -11 9 -11 5 0 14 -21 20 -47 6
-27 14 -59 18 -73 6 -25 7 -117 1 -215 -3 -44 -8 -55 -48 -95 -25 -25 -55 -53
-68 -63 -25 -19 -125 -67 -151 -72 -9 -2 -16 -4 -16 -6 0 -1 -11 -3 -25 -4
-14 -1 -41 -5 -60 -8 -39 -7 -112 -16 -180 -22 -87 -8 -133 -17 -153 -28 -34
-20 -114 -87 -103 -87 3 0 0 -12 -8 -28 -8 -15 -17 -43 -20 -62 -3 -19 -8 -46
-12 -60 -9 -35 -10 -151 -2 -156 4 -3 5 -13 3 -24 -2 -11 0 -20 6 -20 5 0 9
-12 9 -26 0 -14 4 -23 10 -19 5 3 10 1 10 -4 0 -29 95 -85 161 -94 19 -3 34
-6 34 -7 0 -7 113 -20 230 -25 172 -8 215 -12 222 -18 3 -4 14 -2 25 4 10 5
24 7 31 2 17 -10 47 -11 47 -1 0 5 8 5 18 0 19 -9 131 -10 147 -1 9 5 32 4 38
-1 7 -6 77 -4 77 3 0 5 5 5 11 1 16 -10 219 -11 225 -2 3 5 13 4 22 0 9 -5 28
-6 42 -2 14 4 33 3 43 -2 9 -5 17 -5 17 0 0 10 30 9 47 -1 6 -4 14 -3 17 1 6
10 36 9 53 -1 6 -4 15 -3 18 3 5 8 11 8 19 1 7 -6 15 -8 18 -6 7 8 71 14 207
20 64 3 127 7 141 11 14 3 45 7 70 9 25 2 45 4 45 5 0 1 11 3 25 5 46 5 93 16
109 24 9 5 21 10 26 11 41 10 72 31 125 84 45 46 51 68 46 183 -6 115 -13 162
-30 179 -20 19 -120 64 -151 66 -14 1 -25 7 -25 12 0 5 -3 7 -6 3 -3 -3 -18
-1 -33 5 -31 12 -56 17 -93 20 -16 1 -28 7 -28 12 0 5 -3 7 -6 4 -3 -3 -21 -2
-41 4 -19 5 -45 12 -57 14 -38 9 -51 12 -51 14 0 1 -11 4 -25 6 -13 2 -28 10
-32 17 -4 6 -8 8 -8 3 0 -4 -11 -1 -25 8 -14 9 -25 13 -25 9 0 -5 -4 -2 -9 5
-4 7 -17 14 -29 15 -12 0 -24 7 -26 14 -3 7 -12 13 -21 13 -8 0 -15 5 -15 10
0 6 -5 10 -12 10 -21 0 -85 74 -107 125 -38 84 -46 130 -46 265 0 58 2 112 5
120 6 18 39 50 52 50 4 0 22 13 38 29 29 27 30 32 35 139 l6 111 -29 15 c-31
16 -31 17 -21 216 3 53 -8 120 -23 138 -6 6 -8 12 -4 12 3 0 -10 21 -29 46
-19 25 -35 50 -35 55 0 6 -4 7 -10 4 -5 -3 -10 -3 -10 2 0 4 -21 22 -45 38
-25 17 -45 33 -45 38 0 4 -6 7 -13 7 -7 0 -29 9 -50 20 -20 11 -39 20 -42 20
-3 0 -8 1 -12 2 -26 5 -213 2 -213 -4 0 -4 -11 -3 -24 2 -13 5 -27 6 -31 2z"/>
</g>
</svg>
